<svg width="375" height="383" viewBox="0 0 375 383" fill="none" xmlns="http://www.w3.org/2000/svg">
<rect y="106" width="375" height="118" fill="#FBD58E"/>
<rect x="194" width="181" height="304" fill="#FBD58E"/>
<path fill-rule="evenodd" clip-rule="evenodd" d="M34.9127 211C67.7841 211 93 239.036 93 271.896C93 304.533 67.561 332 34.9127 332C2.03965 332 -24 304.757 -24 271.896C-24 238.812 1.81812 211 34.9127 211Z" fill="#FBD58E"/>
<path fill-rule="evenodd" clip-rule="evenodd" d="M348.814 -19C373.819 -19 393 2.54811 393 27.8041C393 52.8888 373.649 74 348.814 74C323.808 74 304 53.0615 304 27.8041C304 2.37654 323.639 -19 348.814 -19Z" fill="#BEBBBB"/>
<path d="M194 106C203.324 106 212.556 107.526 221.171 110.491C229.785 113.456 237.612 117.802 244.205 123.281C250.798 128.759 256.027 135.263 259.595 142.422C263.164 149.58 265 157.252 265 165C265 172.748 263.164 180.42 259.595 187.578C256.027 194.737 250.798 201.241 244.205 206.719C237.612 212.198 229.785 216.544 221.17 219.509C212.556 222.474 203.324 224 194 224L194 165L194 106Z" fill="#BEBBBB"/>
<path d="M194 0C185.727 8.29979e-08 177.534 1.37089 169.891 4.03439C162.247 6.69789 155.302 10.6018 149.452 15.5234C143.602 20.4449 138.962 26.2875 135.796 32.7178C132.63 39.1481 131 46.04 131 53C131 59.9601 132.63 66.852 135.796 73.2823C138.962 79.7125 143.602 85.5552 149.452 90.4767C155.302 95.3982 162.247 99.3021 169.891 101.966C177.535 104.629 185.727 106 194 106L194 53L194 0Z" fill="#FBD58E"/>
<path d="M72 110.5C72 98.3527 70.1506 86.3244 66.5574 75.1018C62.9642 63.8792 57.6975 53.682 51.0581 45.0926C44.4187 36.5032 36.5366 29.6897 27.8619 25.0411C19.1871 20.3926 9.8895 18 0.499987 18L0.5 110.5L72 110.5Z" fill="#BEBBBB"/>
<path d="M194 106C194 125.185 188.311 143.939 177.653 159.89C166.994 175.842 151.845 188.275 134.12 195.616C116.396 202.958 96.8924 204.879 78.0762 201.136C59.2601 197.393 41.9763 188.155 28.4106 174.589C14.8449 161.024 5.60659 143.74 1.86383 124.924C-1.87894 106.108 0.0419851 86.6041 7.38369 68.8797C14.7254 51.1553 27.1581 36.0059 43.1097 25.3474C59.0613 14.689 77.8152 9 97 9L97 106H194Z" fill="#FBD58E"/>
<path d="M194 106C194 131.726 183.78 156.398 165.589 174.589C147.398 192.78 122.726 203 97 203C71.274 203 46.6017 192.78 28.4106 174.589C10.2196 156.398 3.88452e-06 131.726 0 106L97 106L194 106Z" fill="#BEBBBB"/>
<path d="M296 169C320.665 169 344.32 180.273 361.761 200.34C379.202 220.406 389 247.622 389 276C389 304.378 379.202 331.594 361.761 351.66C344.32 371.727 320.665 383 296 383L296 276L296 169Z" fill="#BEBBBB"/>
<path fill-rule="evenodd" clip-rule="evenodd" d="M193.772 14C215.405 14 232 32.3043 232 53.7583C232 75.0668 215.258 93 193.772 93C172.137 93 155 75.2135 155 53.7583C155 32.1586 171.991 14 193.772 14Z" fill="#BEBBBB"/>
<rect x="286" y="93" width="215" height="59" fill="#BEBBBB"/>
<path d="M375.5 93C370.707 93 365.96 93.763 361.532 95.2456C357.104 96.7281 353.08 98.901 349.691 101.64C346.301 104.38 343.613 107.632 341.778 111.211C339.944 114.79 339 118.626 339 122.5C339 126.374 339.944 130.21 341.778 133.789C343.613 137.368 346.301 140.62 349.691 143.36C353.08 146.099 357.104 148.272 361.532 149.754C365.96 151.237 370.707 152 375.5 152L375.5 122.5L375.5 93Z" fill="white"/>
<path fill-rule="evenodd" clip-rule="evenodd" d="M236.31 243C261.034 243 280 264.085 280 288.798C280 313.343 260.866 334 236.31 334C211.585 334 192 313.512 192 288.798C192 263.917 211.419 243 236.31 243Z" fill="#BEBBBB"/>
</svg>
